<svg width="73" height="47" viewBox="0 0 73 47" fill="none" xmlns="http://www.w3.org/2000/svg">
<g id="Group 7">
<path id="Vector" d="M40.1232 20.7981C41.5038 18.3921 45.5882 17.571 45.9717 14.6303C47.1798 5.46448 48.7522 3.93685 54.4089 2.10369C65.9718 -1.61991 72.7408 5.02528 71.9354 16.177C70.9958 29.2573 57.036 27.7106 47.1606 21.0845C44.8212 19.5187 41.9832 20.989 40.104 20.7981H40.1232Z" stroke="white" stroke-width="2" stroke-linecap="round" stroke-linejoin="round"/>
<path id="Vector_2" d="M52.0112 14.573C56.2107 14.8403 62.1167 13.1981 66.2778 12.5298" stroke="white" stroke-width="2" stroke-linecap="round" stroke-linejoin="round"/>
<path id="Vector_3" d="M52.606 19.2894C57.304 19.2894 61.3117 18.2582 65.6837 17.9336" stroke="white" stroke-width="2" stroke-linecap="round" stroke-linejoin="round"/>
<path id="Vector_4" d="M52.606 9.20709C57.304 9.20709 61.3117 8.17594 65.6837 7.85132" stroke="white" stroke-width="2" stroke-linecap="round" stroke-linejoin="round"/>
<path id="Vector_5" d="M43.1714 34.6993C40.7744 31.7777 35.8463 31.9114 33.0083 29.0471C30.8032 26.832 33.9288 17.418 21.1387 16.9215C11.9153 16.5587 -1.27751 20.7406 2.26996 35.4631C6.43105 52.7445 30.8032 44.8963 33.4686 38.3465C34.9067 34.8139 40.7169 35.3677 43.1714 34.6993Z" stroke="white" stroke-width="2" stroke-linecap="round" stroke-linejoin="round"/>
<path id="Vector_6" d="M20.0649 25.4382V26.8131" stroke="white" stroke-width="2" stroke-linecap="round" stroke-linejoin="round"/>
<path id="Vector_7" d="M13.1431 35.1197C15.4633 40.7911 23.9389 41.2494 23.7663 31.4343" stroke="white" stroke-width="2" stroke-linecap="round" stroke-linejoin="round"/>
<path id="Vector_8" d="M11.9346 26.832L12.1839 28.1878" stroke="white" stroke-width="2" stroke-linecap="round" stroke-linejoin="round"/>
</g>
</svg>
